<svg xmlns="http://www.w3.org/2000/svg" xmlns:xlink="http://www.w3.org/1999/xlink" version="1.1" width="256" height="256" viewBox="0 0 256 256" xml:space="preserve">

<defs>
</defs>
<g style="stroke: none; stroke-width: 0; stroke-dasharray: none; stroke-linecap: butt; stroke-linejoin: miter; stroke-miterlimit: 10; fill: none; fill-rule: nonzero; opacity: 1;" transform="translate(1.4065934065934016 1.4065934065934016) scale(2.81 2.81)" >
	<circle cx="45" cy="45" r="45" style="stroke: none; stroke-width: 1; stroke-dasharray: none; stroke-linecap: butt; stroke-linejoin: miter; stroke-miterlimit: 10; fill: rgb(255,200,67); fill-rule: nonzero; opacity: 1;" transform="  matrix(1 0 0 1 0 0) "/>
	<circle cx="45" cy="45" r="35" style="stroke: none; stroke-width: 1; stroke-dasharray: none; stroke-linecap: butt; stroke-linejoin: miter; stroke-miterlimit: 10; fill: rgb(211,135,0); fill-rule: nonzero; opacity: 1;" transform="  matrix(1 0 0 1 0 0) "/>
	<path d="M 45 29.143 c 1.923 0 3.812 0.352 5.584 1.017 l -1.824 0.728 c -1.539 0.614 -2.288 2.36 -1.674 3.898 c 0.469 1.174 1.596 1.889 2.787 1.889 c 0.37 0 0.747 -0.069 1.111 -0.215 l 7.435 -2.968 c 0.034 -0.014 0.063 -0.035 0.096 -0.05 c 0.069 -0.031 0.14 -0.055 0.208 -0.092 c 0.05 -0.027 0.094 -0.061 0.142 -0.09 c 0.053 -0.033 0.106 -0.065 0.157 -0.1 c 0.112 -0.078 0.217 -0.164 0.316 -0.256 c 0.031 -0.029 0.065 -0.053 0.095 -0.083 c 0.122 -0.123 0.232 -0.256 0.33 -0.397 c 0.027 -0.039 0.05 -0.081 0.075 -0.122 c 0.069 -0.109 0.131 -0.221 0.185 -0.339 c 0.024 -0.052 0.046 -0.103 0.067 -0.156 c 0.047 -0.119 0.086 -0.241 0.117 -0.366 c 0.012 -0.047 0.027 -0.093 0.037 -0.141 c 0.034 -0.17 0.057 -0.343 0.061 -0.519 c 0.001 -0.032 -0.004 -0.063 -0.004 -0.095 c -0.001 -0.116 -0.002 -0.232 -0.016 -0.349 l -0.991 -7.998 c -0.204 -1.645 -1.703 -2.811 -3.347 -2.608 c -1.645 0.204 -2.812 1.702 -2.608 3.346 l 0.225 1.81 c -2.687 -1.142 -5.598 -1.745 -8.563 -1.745 c -12.063 0 -21.876 9.813 -21.876 21.876 c 0 1.657 1.343 3 3 3 s 3 -1.344 3 -3 C 29.124 36.265 36.246 29.143 45 29.143 z" style="stroke: none; stroke-width: 1; stroke-dasharray: none; stroke-linecap: butt; stroke-linejoin: miter; stroke-miterlimit: 10; fill: rgb(255,200,67); fill-rule: nonzero; opacity: 1;" transform=" matrix(1 0 0 1 0 0) " stroke-linecap="round" />
	<path d="M 63.876 42.019 c -1.657 0 -3 1.343 -3 3 c 0 8.754 -7.122 15.876 -15.876 15.876 c -2.142 0 -4.235 -0.43 -6.169 -1.245 l 2.403 -0.944 c 1.542 -0.606 2.301 -2.348 1.695 -3.89 c -0.605 -1.541 -2.347 -2.3 -3.889 -1.694 l -7.829 3.077 c 0 0 0 0 -0.001 0 c -0.222 0.087 -0.425 0.205 -0.616 0.338 c -0.052 0.036 -0.097 0.078 -0.146 0.117 c -0.133 0.106 -0.256 0.221 -0.368 0.347 c -0.047 0.053 -0.093 0.105 -0.137 0.161 c -0.115 0.149 -0.215 0.307 -0.3 0.475 c -0.018 0.036 -0.043 0.069 -0.06 0.106 c -0.096 0.209 -0.165 0.43 -0.211 0.658 c -0.003 0.016 -0.012 0.031 -0.015 0.047 c -0.008 0.043 -0.001 0.085 -0.007 0.128 c -0.024 0.17 -0.034 0.341 -0.028 0.517 c 0.003 0.081 0.009 0.16 0.018 0.24 c 0.007 0.061 0.003 0.121 0.014 0.182 l 1.549 8.717 c 0.258 1.453 1.523 2.476 2.95 2.476 c 0.174 0 0.351 -0.016 0.528 -0.047 c 1.631 -0.29 2.719 -1.848 2.429 -3.479 l -0.364 -2.048 c 2.682 1.14 5.579 1.76 8.553 1.76 c 12.063 0 21.876 -9.813 21.876 -21.876 C 66.876 43.362 65.533 42.019 63.876 42.019 z" style="stroke: none; stroke-width: 1; stroke-dasharray: none; stroke-linecap: butt; stroke-linejoin: miter; stroke-miterlimit: 10; fill: rgb(255,200,67); fill-rule: nonzero; opacity: 1;" transform=" matrix(1 0 0 1 0 0) " stroke-linecap="round" />
</g>
</svg>